<?xml version="1.0" encoding="UTF-8"?><svg id="Layer_1" xmlns="http://www.w3.org/2000/svg" width="8.28in" height="2.5in" viewBox="0 0 596 180"><defs><style>.cls-1{fill-rule:evenodd;}</style></defs><path d="M183.2,116h-1v-14.3h7.8v.9h-6.8v6.1h6.4v.9h-6.4v6.4ZM196,105.2c.9,0,1.7.2,2.3.6s1.1,1,1.3,1.7c.3.7.5,1.6.5,2.5v.7h-7.7c0,1.5.3,2.6,1,3.4s1.6,1.2,2.9,1.2,1.2,0,1.7-.2c.5-.1,1-.3,1.6-.6v.9c-.5.2-1,.4-1.6.5-.5.1-1.1.2-1.8.2-1.1,0-2-.2-2.7-.7-.7-.4-1.3-1.1-1.6-1.9-.4-.8-.5-1.8-.5-2.9s.2-2,.5-2.9c.4-.8.9-1.5,1.6-2,.7-.5,1.5-.7,2.5-.7v.2ZM196,106c-1,0-1.8.3-2.5,1-.6.7-1,1.6-1.1,2.9h6.6c0-.8-.1-1.5-.3-2.1s-.6-1.1-1-1.4-1-.5-1.7-.5v.1ZM207.2,105.2h.8c.2,0,.5,0,.7.1l-.2.9c-.2,0-.4-.1-.7-.1h-.7c-.5,0-1,0-1.3.3-.4.2-.7.5-1,.8-.3.4-.5.8-.6,1.3s-.2,1-.2,1.7v5.9h-1v-10.6h.8v2h.2c.2-.4.4-.8.7-1.1.3-.3.7-.6,1.1-.8s.9-.3,1.4-.3v-.1ZM215.5,105.2c1.2,0,2.1.3,2.7.9.6.6,1,1.6,1,2.9v6.9h-1v-6.9c0-1.1-.2-1.8-.7-2.3s-1.2-.7-2.1-.7-2.1.3-2.7,1c-.6.7-.9,1.7-.9,3.1v5.8h-1v-10.6h.8v1.9h.2c.2-.4.4-.8.8-1.1.3-.3.7-.6,1.2-.8.5-.2,1-.3,1.7-.3v.2Z"/><path d="M6.6,116h-1v-14.3h7.8v.9h-6.8v6.1h6.4v.9h-6.4v6.4ZM19.5,105.2c.9,0,1.7.2,2.3.6.6.4,1.1,1,1.3,1.7.3.7.4,1.6.4,2.5v.7h-7.7c0,1.5.3,2.6,1,3.4s1.6,1.2,2.9,1.2,1.2,0,1.7-.2c.5-.1,1-.3,1.6-.6v.9c-.5.2-1,.4-1.6.5-.5.1-1.1.2-1.8.2-1.1,0-2-.2-2.7-.7-.7-.4-1.3-1.1-1.6-1.9-.4-.8-.5-1.8-.5-2.9s.2-2,.5-2.9c.4-.8.9-1.5,1.6-2s1.5-.7,2.5-.7l.1.2ZM19.4,106c-1,0-1.8.3-2.5,1-.6.7-1,1.6-1.1,2.9h6.6c0-.8-.1-1.5-.3-2.1-.2-.6-.6-1.1-1-1.4s-1-.5-1.7-.5v.1ZM30.7,105.2h.8c.2,0,.5,0,.7.1l-.2.9c-.2,0-.4-.1-.7-.1h-.7c-.5,0-1,0-1.3.3-.4.2-.7.5-1,.8-.3.4-.5.8-.6,1.3s-.2,1-.2,1.7v5.9h-1v-10.6h.8v2h.2c.2-.4.4-.8.7-1.1.3-.3.7-.6,1.1-.8.4-.2.9-.3,1.4-.3v-.1ZM38.9,105.2c1.2,0,2.1.3,2.7.9.6.6,1,1.6,1,2.9v6.9h-1v-6.9c0-1.1-.2-1.8-.7-2.3s-1.2-.7-2.1-.7-2.1.3-2.7,1c-.6.7-.9,1.7-.9,3.1v5.8h-1v-10.6h.8v1.9h.2c.2-.4.4-.8.8-1.1.3-.3.7-.6,1.2-.8.5-.2,1-.3,1.7-.3v.2ZM60.4,116l-1.9-5h-6l-2,5h-1l5.6-14.3h.9l5.5,14.3h-1.1ZM58.2,110l-2-5.4c0-.1-.1-.3-.2-.5,0-.2-.1-.4-.2-.7,0-.2-.2-.5-.2-.7,0,.2-.1.5-.2.7,0,.2-.2.4-.2.7,0,.2-.1.4-.2.6l-2.1,5.3h5.3ZM64.2,116h-1v-15.2h1v15.2ZM68.8,116h-1v-15.2h1v15.2ZM73.3,105.4v10.6h-1v-10.6h1ZM72.8,101.5c.2,0,.4,0,.5.2.1.1.2.3.2.6s0,.4-.2.6c-.1.1-.3.2-.5.2s-.4,0-.5-.2c-.1-.1-.2-.3-.2-.6s0-.4.2-.6c.1-.2.3-.2.5-.2ZM80.9,105.2c.9,0,1.7.2,2.3.6.6.4,1.1,1,1.3,1.7.3.7.4,1.6.4,2.5v.7h-7.7c0,1.5.3,2.6,1,3.4s1.6,1.2,2.9,1.2,1.2,0,1.7-.2c.5-.1,1-.3,1.6-.6v.9c-.5.2-1,.4-1.6.5-.5.1-1.1.2-1.8.2-1.1,0-2-.2-2.7-.7-.7-.4-1.3-1.1-1.6-1.9-.4-.8-.5-1.8-.5-2.9s.2-2,.5-2.9c.4-.8.9-1.5,1.6-2s1.5-.7,2.5-.7l.1.2ZM80.8,106c-1,0-1.8.3-2.5,1-.6.7-1,1.6-1.1,2.9h6.6c0-.8-.1-1.5-.3-2.1-.2-.6-.6-1.1-1-1.4s-1-.5-1.7-.5v.1ZM94.5,113.2c0,.6-.2,1.2-.5,1.6s-.8.8-1.4,1-1.4.3-2.2.3-1.4,0-2-.2c-.6-.1-1.1-.3-1.5-.5v-1c.5.2,1,.4,1.6.6s1.2.2,1.8.2c1.1,0,1.9-.2,2.4-.6s.7-.9.7-1.5-.1-.8-.4-1c-.2-.3-.6-.5-1-.7s-1-.4-1.6-.6c-.7-.2-1.2-.4-1.7-.7-.5-.2-.9-.5-1.2-.9-.3-.4-.4-.9-.4-1.5s.3-1.5,1-2,1.6-.7,2.8-.7,1.2,0,1.8.2c.6.1,1.1.3,1.5.5l-.4.8c-.4-.2-.9-.3-1.4-.5-.5-.1-1.1-.2-1.6-.2-.9,0-1.5.2-2,.5s-.7.8-.7,1.3.1.8.4,1.1c.2.3.6.5,1,.6.4.2,1,.4,1.6.6s1.2.4,1.7.7c.5.2.9.5,1.3.9.3.4.5.9.5,1.5l-.1.2Z"/><polygon points="145 45 146.4 45 146.4 36.1 155.4 36.1 155.4 34.8 146.4 34.8 146.4 26.3 156 26.3 156 25 145 25 145 45"/><path d="M125.7,29.9c-.9,0-1.7.1-2.4.4-.7.3-1.2.6-1.7,1.1-.5.4-.8.9-1.1,1.5h0l-.2-2.7h-1.1v14.9h1.4v-8.2c0-1.9.4-3.4,1.3-4.3.9-1,2.1-1.4,3.7-1.4s2.3.3,2.9,1c.7.7,1,1.8,1,3.3v9.6h1.4v-9.7c0-1.9-.4-3.2-1.3-4.1s-2.2-1.3-3.8-1.3l-.1-.1Z"/><path d="M96,38v4.6h0l-11.8-17.6h-1.4v20h1.3v-17.7h0l11.8,17.7h1.4v-20h-1.4v13h.1Z"/><path d="M112.1,30.8c-1-.7-2.2-1-3.6-1s-2.6.3-3.6.9-1.8,1.5-2.3,2.7c-.5,1.1-.8,2.5-.8,4.1s.1,2.2.4,3.2c.3.9.7,1.8,1.3,2.4.6.7,1.3,1.2,2.1,1.6s1.7.5,2.8.5,2.1-.2,2.9-.6c.8-.4,1.5-.9,2.1-1.6.6-.7,1-1.5,1.3-2.4s.4-2,.4-3.1-.2-2.8-.7-4-1.2-2.1-2.2-2.7h-.1ZM113,41c-.4,1-.9,1.8-1.7,2.3s-1.7.8-2.9.8-2.1-.3-2.9-.8-1.3-1.3-1.7-2.3c-.4-1-.6-2.1-.6-3.4,0-2,.4-3.6,1.3-4.8.9-1.1,2.2-1.7,3.9-1.7s2.2.3,2.9.8c.7.6,1.3,1.3,1.6,2.3.3,1,.5,2.1.5,3.3s-.2,2.4-.5,3.4l.1.1Z"/><rect x="134.3" y="36.8" width="6.8" height="1.3"/><rect x="158.8" y="23.7" width="1.4" height="21.3"/><path d="M241,29.9c-.9,0-1.7.1-2.4.4s-1.2.6-1.7,1.1c-.5.4-.8.9-1.1,1.5h0l-.2-2.7h-1.1v14.9h1.4v-8.2c0-1.9.4-3.4,1.3-4.3.9-1,2.1-1.4,3.7-1.4s2.3.3,2.9,1c.7.7,1,1.8,1,3.3v9.6h1.4v-9.7c0-1.9-.4-3.2-1.3-4.1s-2.2-1.3-3.8-1.3l-.1-.1Z"/><rect x="228.1" y="30.1" width="1.4" height="14.9"/><path d="M228.8,24.6c-.3,0-.6.1-.7.3-.2.2-.2.5-.2.8s0,.6.2.8c.2.2.4.3.7.3s.6-.1.8-.3c.2-.2.2-.5.2-.8s0-.6-.2-.8c-.2-.2-.4-.3-.8-.3Z"/><path d="M262.5,30.1h-4.8c-.2,0-.4-.1-.6-.2h-1.7c-1.1,0-2,.2-2.8.6s-1.4,1-1.8,1.7c-.4.7-.6,1.6-.6,2.6s.2,1.9.7,2.7c.5.7,1.2,1.3,2,1.6-.6.4-1.1.8-1.4,1.2-.3.4-.5.9-.5,1.4s.1.9.4,1.2c.3.3.6.6,1.1.8-1.1.1-1.9.6-2.6,1.3-.6.7-.9,1.6-.9,2.6s.5,2.3,1.5,3,2.5,1.1,4.4,1.1,4.2-.4,5.4-1.3c1.3-.9,1.9-2.1,1.9-3.6s-.4-2.2-1.3-2.9-2.1-1-3.7-1h-2.6c-.5,0-.9,0-1.3-.2-.3-.1-.6-.3-.8-.5s-.3-.5-.3-.8c0-.5.1-.9.4-1.2.3-.3.7-.7,1.3-1,.4,0,.9.1,1.3.1,1.7,0,3-.4,3.9-1.3.9-.9,1.4-2,1.4-3.5s0-1.2-.3-1.8c-.2-.6-.5-1.1-.9-1.6l3.1-.2v-1l.1.2ZM254.5,44.3h2.5c.8,0,1.5,0,2.1.2.6.1,1,.4,1.4.8.3.4.5.9.5,1.5s-.2,1.5-.7,2c-.4.6-1.1,1-2,1.3s-1.9.4-3.3.4-2.6-.3-3.4-.8c-.8-.5-1.2-1.3-1.2-2.3s.2-1.4.5-1.9.8-.8,1.4-1c.6-.2,1.3-.3,2.1-.3l.1.1ZM258.3,37.4c-.7.6-1.6.9-2.8.9s-2.2-.3-2.8-.9c-.6-.6-1-1.5-1-2.6s.3-2.2,1-2.8c.7-.7,1.6-1,2.8-1s2.2.3,2.8.9c.7.6,1,1.6,1,2.8s-.3,2.1-1,2.7Z"/><path d="M174.5,30.8c-1-.7-2.2-1-3.6-1s-2.6.3-3.6.9-1.8,1.5-2.3,2.7c-.5,1.1-.8,2.5-.8,4.1s.1,2.2.4,3.2c.3.9.7,1.8,1.3,2.4.6.7,1.3,1.2,2.1,1.6.8.4,1.7.5,2.8.5s2.1-.2,2.9-.6c.8-.4,1.5-.9,2.1-1.6.6-.7,1-1.5,1.3-2.4s.4-2,.4-3.1-.2-2.8-.7-4-1.2-2.1-2.2-2.7h-.1ZM175.5,41c-.4,1-.9,1.8-1.7,2.3s-1.7.8-2.9.8-2.1-.3-2.9-.8c-.8-.5-1.3-1.3-1.7-2.3s-.6-2.1-.6-3.4c0-2,.4-3.6,1.3-4.8.9-1.1,2.2-1.7,3.9-1.7s2.2.3,2.9.8c.7.6,1.3,1.3,1.6,2.3s.5,2.1.5,3.3-.2,2.4-.5,3.4l.1.1Z"/><path d="M223.1,29.9c-.8,0-1.4.1-2,.4s-1.1.6-1.5,1.1-.7,1-1,1.5h0v-2.8h-1.3v14.9h1.4v-8.2c0-.9.1-1.6.3-2.3s.5-1.3.9-1.8.8-.9,1.4-1.1c.6-.3,1.2-.4,1.9-.4h1c.3,0,.6,0,.9.2l.2-1.3c-.3,0-.6-.1-1-.2h-1.2Z"/><path d="M195,39.6c-.1.5-.3,1-.4,1.5-.1.4-.2.9-.3,1.2,0,.4-.1.7-.2,1h0c0-.3-.1-.7-.2-1,0-.4-.2-.8-.3-1.2s-.2-.9-.4-1.3l-3.1-9.6h-1.4l-3.2,9.7c-.1.4-.2.7-.3,1.1-.1.3-.2.6-.3.9,0,.3-.1.6-.2.8,0,.2-.1.5-.2.7h0c0-.3-.1-.7-.2-1,0-.4-.2-.8-.3-1.2s-.2-.9-.4-1.5l-2.6-9.5h-1.5l4.2,14.9h1.4l3.3-10c0-.3.2-.6.3-.8,0-.3.2-.5.2-.8s.1-.5.2-.8c0-.2.1-.5.2-.7h0c0,.2.1.5.2.7,0,.2.1.5.2.7,0,.3.2.5.2.8s.2.6.3.9l3.2,10h1.5l4-14.9h-1.4l-2.5,9.5v-.1Z"/><path d="M210.6,30.7c-.8-.6-1.9-.9-3.2-.9s-2.6.3-3.6,1-1.7,1.6-2.2,2.8-.7,2.5-.7,4,.3,2.9.8,4,1.3,2,2.3,2.7c1,.6,2.3.9,3.8.9s1.8,0,2.5-.2c.7-.1,1.5-.4,2.2-.7v-1.3c-.8.4-1.6.6-2.3.8-.7.1-1.5.2-2.4.2-1.8,0-3.1-.5-4.1-1.6-.9-1.1-1.4-2.7-1.4-4.7h10.7v-1c0-1.3-.2-2.5-.6-3.5-.4-1-1-1.8-1.9-2.4l.1-.1ZM202.4,36.5c.2-1.8.7-3.1,1.5-4.1.9-.9,2-1.4,3.5-1.4s1.8.2,2.4.7c.6.5,1.1,1.1,1.4,1.9s.5,1.8.5,2.9h-9.3,0Z"/><path class="cls-1" d="M223,160.1c-.6-1.8-2.5-3-4.3-2.5l-14.7,3.9v-5.1l11.8-3c1.8-.5,2.9-2.4,2.3-4.2-.5-1.8-2.5-3-4.3-2.5l-9.8,2.5v-5.3l5.1-1.6c1.8-.6,2.8-2.5,2.1-4.3-.6-1.8-2.6-2.8-4.5-2.3l-2.8.8v-3c0-1.9-1.5-3.5-3.4-3.5s-3.4,1.6-3.4,3.5v3l-2.8-.8c-1.8-.6-3.8.5-4.5,2.3s.3,3.7,2.1,4.3l5.1,1.6v5.3l-9.8-2.5c-1.8-.5-3.8.6-4.3,2.5s.5,3.7,2.3,4.2l11.8,3v5.1l-14.7-3.9c-1.8-.5-3.8.6-4.3,2.5-.6,1.8.5,3.7,2.3,4.2l16.7,4.4v7.8c0,1.9,1.5,3.5,3.4,3.5s3.4-1.6,3.4-3.5v-7.8l16.7-4.4c1.8-.5,2.9-2.4,2.3-4.2h.2Z"/><path d="M49.5,130c-6.3,0-11.5,5.2-11.5,11.5s3.4,9.5,8,11v24c0,1.9,1.6,3.5,3.5,3.5s3.5-1.6,3.5-3.5v-24c4.6-1.5,8-5.8,8-11s-5.2-11.5-11.5-11.5Z"/><path d="M457.8,116l-5.2-13.2h0v13.2h-1v-14.3h1.5l5.1,12.7h0l5.1-12.7h1.5v14.3h-1v-13.2h0l-5.3,13.2h-.8.1ZM477.4,110.7c0,.8-.1,1.6-.3,2.2-.2.7-.5,1.2-.9,1.7s-.9.9-1.5,1.1c-.6.3-1.3.4-2.1.4s-1.4-.1-2-.4-1.1-.6-1.5-1.1-.7-1.1-.9-1.7c-.2-.7-.3-1.4-.3-2.3s.2-2.1.6-2.9.9-1.5,1.6-1.9,1.6-.7,2.6-.7,1.9.2,2.6.7,1.2,1.1,1.6,1.9c.3.8.5,1.8.5,2.9v.1ZM469,110.7c0,.9.1,1.7.4,2.4.3.7.7,1.2,1.2,1.6s1.2.6,2.1.6,1.6-.2,2.1-.6.9-.9,1.2-1.6c.3-.7.4-1.5.4-2.4s-.1-1.7-.4-2.4c-.2-.7-.6-1.2-1.2-1.6-.5-.4-1.2-.6-2.1-.6-1.2,0-2.2.4-2.8,1.2-.6.8-.9,2-.9,3.4h0ZM485,105.2c1.2,0,2.1.3,2.7.9s1,1.6,1,2.9v6.9h-1v-6.9c0-1.1-.2-1.8-.7-2.3s-1.2-.7-2.1-.7-2.1.3-2.7,1-.9,1.7-.9,3.1v5.8h-1v-10.6h.8v1.9h.2c.2-.4.4-.8.8-1.1.3-.3.7-.6,1.2-.8.5-.2,1-.3,1.7-.3v.2ZM501,110.7c0,.8-.1,1.6-.3,2.2-.2.7-.5,1.2-.9,1.7s-.9.9-1.5,1.1c-.6.3-1.3.4-2.1.4s-1.4-.1-2-.4-1.1-.6-1.5-1.1-.7-1.1-.9-1.7c-.2-.7-.3-1.4-.3-2.3s.2-2.1.6-2.9.9-1.5,1.6-1.9,1.6-.7,2.6-.7,1.9.2,2.6.7,1.2,1.1,1.6,1.9c.3.8.5,1.8.5,2.9v.1ZM492.6,110.7c0,.9.1,1.7.4,2.4.3.7.7,1.2,1.2,1.6s1.2.6,2.1.6,1.6-.2,2.1-.6,1-.9,1.2-1.6c.3-.7.4-1.5.4-2.4s-.1-1.7-.4-2.4c-.2-.7-.6-1.2-1.2-1.6-.5-.4-1.2-.6-2.1-.6-1.2,0-2.2.4-2.8,1.2-.6.8-.9,2-.9,3.4h0ZM508.2,116.2c-1.1,0-1.9-.2-2.7-.7-.7-.4-1.3-1.1-1.6-1.9-.4-.8-.5-1.8-.5-2.9s.2-2.2.6-3,1-1.5,1.8-1.9,1.7-.7,2.7-.7,1,0,1.4.1c.4,0,.8.2,1.2.4l-.3.9c-.4-.2-.8-.3-1.2-.4-.4,0-.8-.1-1.2-.1-.9,0-1.6.2-2.2.6s-1.1.9-1.4,1.6-.5,1.5-.5,2.5.1,1.7.4,2.4c.3.7.7,1.2,1.3,1.6.6.4,1.3.6,2.2.6s1,0,1.5-.2c.5-.1.9-.2,1.3-.4v.9c-.3.2-.7.3-1.2.4-.4.1-1,.2-1.5.2h-.1ZM522.2,110.7c0,.8-.1,1.6-.3,2.2-.2.7-.5,1.2-.9,1.7s-.9.9-1.5,1.1c-.6.3-1.3.4-2.1.4s-1.4-.1-2-.4-1.1-.6-1.5-1.1-.7-1.1-.9-1.7c-.2-.7-.3-1.4-.3-2.3s.2-2.1.6-2.9c.4-.8.9-1.5,1.6-1.9.7-.4,1.6-.7,2.6-.7s1.9.2,2.6.7c.7.5,1.2,1.1,1.6,1.9.3.8.5,1.8.5,2.9v.1ZM513.8,110.7c0,.9.1,1.7.4,2.4.3.7.7,1.2,1.2,1.6s1.2.6,2.1.6,1.6-.2,2.1-.6,1-.9,1.2-1.6c.3-.7.4-1.5.4-2.4s-.1-1.7-.4-2.4c-.2-.7-.6-1.2-1.2-1.6-.5-.4-1.2-.6-2.1-.6-1.2,0-2.2.4-2.8,1.2-.6.8-.9,2-.9,3.4ZM528,115.3h.8c.3,0,.5-.1.7-.2v.8c-.2,0-.5.1-.7.2h-.9c-.6,0-1.1-.1-1.5-.3-.4-.2-.7-.6-.9-1-.2-.5-.3-1-.3-1.8v-6.9h-1.6v-.6l1.6-.3.3-2.5h.7v2.6h3.3v.8h-3.3v6.8c0,.8.1,1.3.4,1.7.3.4.8.6,1.4.6v.1ZM538.5,113.2c0,.6-.2,1.2-.5,1.6s-.8.8-1.4,1c-.6.2-1.4.3-2.2.3s-1.4,0-2-.2c-.6-.1-1.1-.3-1.5-.5v-1c.5.2,1,.4,1.6.6s1.2.2,1.8.2c1.1,0,1.9-.2,2.4-.6s.7-.9.7-1.5-.1-.8-.4-1c-.2-.3-.6-.5-1-.7s-1-.4-1.6-.6c-.7-.2-1.2-.4-1.7-.7-.5-.2-.9-.5-1.2-.9s-.4-.9-.4-1.5.3-1.5,1-2,1.6-.7,2.8-.7,1.2,0,1.8.2c.6.1,1.1.3,1.5.5l-.4.8c-.4-.2-.9-.3-1.4-.5-.5-.1-1.1-.2-1.6-.2-.9,0-1.5.2-2,.5s-.7.8-.7,1.3.1.8.4,1.1c.2.3.6.5,1,.6.4.2,1,.4,1.6.6s1.2.4,1.7.7c.5.2.9.5,1.3.9.3.4.5.9.5,1.5l-.1.2Z"/><path d="M334.4,108.7c0,1.6-.3,2.9-.8,4-.6,1.1-1.4,1.9-2.5,2.4s-2.5.8-4.1.8h-3.4v-14.3h3.9c1.5,0,2.8.3,3.8.8s1.8,1.3,2.4,2.4c.5,1,.8,2.3.8,3.8l-.1.1ZM333.4,108.8c0-1.4-.2-2.5-.7-3.4-.4-.9-1.1-1.6-2-2.1s-2.1-.7-3.5-.7h-2.6v12.5h2.4c2.2,0,3.8-.5,4.8-1.6,1.1-1.1,1.6-2.6,1.6-4.8v.1ZM338.4,105.4v10.6h-1v-10.6h1ZM337.9,101.5c.2,0,.4,0,.5.2.1.1.2.3.2.6s0,.4-.2.6c-.1.1-.3.2-.5.2s-.4,0-.5-.2c-.1-.1-.2-.3-.2-.6s0-.4.2-.6c.1-.2.3-.2.5-.2ZM346.2,116.2c-1.1,0-1.9-.2-2.7-.7-.7-.4-1.3-1.1-1.6-1.9-.4-.8-.5-1.8-.5-2.9s.2-2.2.6-3,1-1.5,1.8-1.9,1.7-.7,2.7-.7,1,0,1.4.1c.4,0,.8.2,1.2.4l-.3.9c-.4-.2-.8-.3-1.2-.4-.4,0-.8-.1-1.2-.1-.9,0-1.6.2-2.2.6s-1.1.9-1.4,1.6-.5,1.5-.5,2.5.1,1.7.4,2.4c.3.7.7,1.2,1.3,1.6.6.4,1.3.6,2.2.6s1,0,1.5-.2c.5-.1.9-.2,1.3-.4v.9c-.3.2-.7.3-1.2.4-.4.1-1,.2-1.5.2h-.1ZM360.3,110.7c0,.8-.1,1.6-.3,2.2-.2.7-.5,1.2-.9,1.7s-.9.9-1.5,1.1c-.6.3-1.3.4-2.1.4s-1.4-.1-2-.4-1.1-.6-1.5-1.1-.7-1.1-.9-1.7c-.2-.7-.3-1.4-.3-2.3s.2-2.1.6-2.9.9-1.5,1.6-1.9,1.6-.7,2.6-.7,1.9.2,2.6.7,1.2,1.1,1.6,1.9c.3.8.5,1.8.5,2.9v.1ZM351.9,110.7c0,.9.1,1.7.4,2.4.3.7.7,1.2,1.2,1.6s1.2.6,2.1.6,1.6-.2,2.1-.6,1-.9,1.2-1.6c.3-.7.4-1.5.4-2.4s-.1-1.7-.4-2.4c-.2-.7-.6-1.2-1.2-1.6-.5-.4-1.2-.6-2.1-.6-1.2,0-2.2.4-2.8,1.2-.6.8-.9,2-.9,3.4h0ZM366.1,115.3h.9c.3,0,.5-.1.7-.2v.8c-.2,0-.5.1-.7.2h-.9c-.6,0-1.1-.1-1.5-.3-.4-.2-.7-.6-.9-1-.2-.5-.3-1-.3-1.8v-6.9h-1.6v-.6l1.6-.3.3-2.5h.7v2.6h3.3v.8h-3.3v6.8c0,.8.1,1.3.4,1.7.3.4.8.6,1.4.6l-.1.1ZM376.5,113.2c0,.6-.2,1.2-.5,1.6s-.8.8-1.4,1-1.4.3-2.2.3-1.4,0-2-.2c-.6-.1-1.1-.3-1.5-.5v-1c.5.2,1,.4,1.6.6s1.2.2,1.8.2c1.1,0,1.9-.2,2.4-.6s.7-.9.7-1.5-.1-.8-.4-1c-.2-.3-.6-.5-1-.7s-1-.4-1.6-.6c-.7-.2-1.2-.4-1.7-.7-.5-.2-.9-.5-1.2-.9-.3-.4-.4-.9-.4-1.5s.3-1.5,1-2,1.6-.7,2.8-.7,1.2,0,1.8.2c.6.1,1.1.3,1.5.5l-.4.8c-.4-.2-.9-.3-1.4-.5-.5-.1-1.1-.2-1.6-.2-.9,0-1.5.2-2,.5s-.7.8-.7,1.3.1.8.4,1.1c.2.3.6.5,1,.6.4.2,1,.4,1.6.6s1.2.4,1.7.7c.5.2.9.5,1.3.9.3.4.5.9.5,1.5l-.1.2Z"/><path d="M402.2,45h-1.4v-20h10.9v1.3h-9.5v8.5h9v1.3h-9v8.9ZM416,45h-1.4v-21.3h1.4v21.3ZM433.2,37.5c0,1.1-.1,2.2-.4,3.1-.3.9-.7,1.8-1.3,2.4-.6.7-1.2,1.2-2.1,1.6-.8.4-1.8.6-2.9.6s-2-.2-2.8-.5c-.8-.4-1.5-.9-2.1-1.6-.6-.7-1-1.5-1.3-2.4s-.4-2-.4-3.2.3-3,.8-4.1c.5-1.2,1.3-2,2.3-2.7,1-.6,2.2-.9,3.6-.9s2.6.3,3.6,1c1,.6,1.7,1.5,2.2,2.7s.7,2.5.7,4h.1ZM421.5,37.5c0,1.3.2,2.4.6,3.4s.9,1.7,1.7,2.3c.8.5,1.7.8,2.9.8s2.2-.3,2.9-.8c.8-.5,1.3-1.3,1.7-2.3.4-1,.5-2.1.5-3.4s-.2-2.4-.5-3.3c-.3-1-.9-1.7-1.6-2.3-.7-.6-1.7-.8-2.9-.8-1.7,0-3,.6-3.9,1.7-.9,1.1-1.3,2.7-1.3,4.8l-.1-.1ZM449.2,45l-3.2-10c-.1-.3-.2-.6-.3-.9s-.2-.5-.2-.8-.1-.5-.2-.7c0-.2-.1-.5-.2-.7h0c0,.2-.1.5-.2.7,0,.2-.1.5-.2.8,0,.3-.2.5-.2.8s-.2.6-.3.8l-3.3,10h-1.4l-4.2-14.9h1.5l2.6,9.5c.2.6.3,1.1.4,1.5s.2.8.3,1.2.2.7.2,1h0c0-.2.1-.5.2-.7,0-.3.1-.5.2-.8,0-.3.2-.6.3-.9.1-.3.2-.7.3-1.1l3.2-9.7h1.4l3.1,9.6c.1.5.3.9.4,1.3.1.4.2.8.3,1.2.1.4.2.7.2,1h0c0-.3,0-.6.2-1,0-.4.2-.8.3-1.2.1-.4.2-.9.4-1.5l2.5-9.5h1.4l-4,14.9h-1.5v.1ZM463.2,29.9c1.3,0,2.3.3,3.2.9.8.6,1.5,1.4,1.9,2.4s.6,2.2.6,3.5v1h-10.7c0,2,.5,3.6,1.4,4.7.9,1.1,2.3,1.6,4.1,1.6s1.7,0,2.4-.2c.7-.2,1.4-.4,2.3-.8v1.3c-.7.3-1.5.6-2.2.7-.7.2-1.6.2-2.5.2-1.5,0-2.8-.3-3.8-.9-1-.6-1.8-1.5-2.3-2.7-.5-1.1-.8-2.5-.8-4s.2-2.8.7-4,1.2-2.1,2.2-2.8c1-.7,2.2-1,3.6-1l-.1.1ZM463.2,31c-1.4,0-2.6.5-3.5,1.4s-1.4,2.3-1.5,4.1h9.3c0-1.1-.2-2-.5-2.9s-.8-1.5-1.4-1.9c-.6-.5-1.4-.7-2.4-.7ZM478.9,29.9h1.1c.3,0,.7.1,1,.2l-.2,1.3c-.3,0-.6-.1-.9-.2h-1c-.7,0-1.3.1-1.9.4-.5.3-1,.6-1.4,1.1s-.7,1.1-.9,1.8c-.2.7-.3,1.5-.3,2.3v8.2h-1.4v-14.9h1.2v2.8h.2c.2-.6.5-1.1,1-1.5.4-.5.9-.8,1.5-1.1.6-.3,1.3-.4,2-.4h0ZM485.2,30.1v14.9h-1.4v-14.9h1.4ZM484.6,24.6c.3,0,.6.1.8.3.2.2.2.5.2.8s0,.6-.2.8c-.2.2-.4.3-.8.3s-.6-.1-.7-.3c-.2-.2-.2-.5-.2-.8s0-.6.2-.8c.2-.2.4-.3.7-.3ZM496.8,29.9c1.7,0,2.9.4,3.8,1.3s1.3,2.2,1.3,4.1v9.7h-1.4v-9.6c0-1.5-.3-2.6-1-3.3s-1.7-1-2.9-1-2.9.5-3.7,1.4c-.9.9-1.3,2.4-1.3,4.3v8.2h-1.4v-14.9h1.1l.2,2.7h0c.3-.6.6-1.1,1.1-1.5.5-.5,1-.8,1.7-1.1.7-.3,1.5-.4,2.4-.4l.1.1ZM510.7,51.7c-1.9,0-3.3-.4-4.4-1.1-1-.7-1.5-1.7-1.5-3s.3-1.9.9-2.6c.6-.7,1.5-1.2,2.6-1.3-.4-.2-.8-.5-1.1-.8-.3-.3-.4-.7-.4-1.2s.2-1,.5-1.4.8-.9,1.4-1.2c-.9-.3-1.5-.8-2-1.6-.5-.7-.7-1.6-.7-2.7s.2-1.9.6-2.6c.4-.7,1-1.3,1.8-1.7.8-.4,1.7-.6,2.8-.6s.6,0,.9,0h.8c.2,0,.4,0,.6.2h4.8v1l-3.1.2c.4.5.7,1,.9,1.6.2.6.3,1.1.3,1.8,0,1.5-.5,2.6-1.4,3.5s-2.2,1.3-3.9,1.3-.9,0-1.3-.1c-.6.3-1,.7-1.3,1s-.4.7-.4,1.2,0,.6.3.8c.2.2.4.3.8.5.3.1.8.2,1.3.2h2.6c1.6,0,2.8.3,3.7,1s1.3,1.6,1.3,2.9-.6,2.8-1.9,3.6c-1.3.9-3.1,1.3-5.4,1.3l-.1-.2ZM510.8,50.6c1.3,0,2.4-.1,3.3-.4.9-.3,1.5-.7,2-1.3.4-.5.7-1.2.7-2s-.2-1.2-.5-1.5c-.3-.4-.8-.6-1.4-.8-.6-.1-1.3-.2-2.1-.2h-2.5c-.8,0-1.5.1-2.1.3s-1.1.5-1.4,1-.5,1.1-.5,1.9.4,1.7,1.2,2.3c.8.5,1.9.8,3.4.8l-.1-.1ZM511.2,38.4c1.2,0,2.2-.3,2.8-.9s1-1.5,1-2.7-.3-2.2-1-2.8c-.7-.6-1.6-.9-2.8-.9s-2.1.3-2.8,1c-.7.7-1,1.6-1,2.8s.3,2,1,2.6c.6.6,1.6.9,2.8.9Z"/><path class="cls-1" d="M373.4,155.5c-.3-.6-1-1-1.7-1.1h-1c-.7,0-1.6,0-2.6.2-2.1.2-5,.9-7.7,2.5s-4.7,3.7-6,5.4c-.4.5-.8,1-1,1.5v-30.5c0-1.9-1.6-3.5-3.5-3.5s-3.5,1.6-3.5,3.5v19.4c-.1-.1-.2-.3-.3-.4-1.3-1.7-3.2-3.8-6-5.4-2.7-1.6-5.6-2.2-7.7-2.5-1.1-.1-2-.2-2.6-.2h-1c-.7,0-1.4.5-1.7,1.1-.3.6-.4,1.4,0,2h0s0,.1.1.2c0,.2.2.4.4.7.3.6.8,1.3,1.5,2.2,1.3,1.7,3.2,3.8,6,5.4,2.8,1.6,5.6,2.2,7.7,2.5,1.1.1,2,.2,2.6.2h1.1v17.8c0,1.9,1.6,3.5,3.5,3.5s3.5-1.6,3.5-3.5v-8c.2.1.5.2.8.2h1c.7,0,1.5,0,2.6-.2,2.1-.2,5-.9,7.7-2.5s4.7-3.7,6-5.4c.6-.9,1.1-1.6,1.5-2.2.2-.3.3-.5.4-.7l.2-.3c.3-.7.3-1.4,0-2l-.3.1Z"/><path d="M365.7,25.1c4.1,0,7.3-3.3,7.3-7.4s-3.3-7.4-7.3-7.4-3.4.6-4.7,1.7c1-1.3,1.7-2.9,1.7-4.7,0-4.1-3.3-7.4-7.3-7.4s-7.2,3.2-7.3,7.1h0c-.1-3.9-3.4-7.1-7.3-7.1s-7.3,3.3-7.3,7.4.5,2.9,1.2,4.1c-1.2-.9-2.7-1.4-4.2-1.4-4.1,0-7.3,3.3-7.3,7.4s3.3,7.4,7.3,7.4c-4.1,0-7.3,3.3-7.3,7.4s3.3,7.4,7.3,7.4,3.4-.6,4.7-1.7c-1,1.3-1.7,2.9-1.7,4.7,0,4.1,3.3,7.4,7.3,7.4s7.3-3.3,7.3-7.4c0,4.1,3.3,7.4,7.3,7.4s7.3-3.3,7.3-7.4-.5-2.9-1.2-4.1c1.2.9,2.7,1.4,4.2,1.4,4.1,0,7.3-3.3,7.3-7.4s-3.3-7.4-7.3-7.4Z"/><path class="cls-1" d="M495,130c1.9,0,3.5,1.6,3.5,3.5v43c0,1.9-1.6,3.5-3.5,3.5s-3.5-1.6-3.5-3.5v-43c0-1.9,1.6-3.5,3.5-3.5Z"/><path class="cls-1" d="M509,155c1.9,0,3.5,1.6,3.5,3.5v18c0,1.9-1.6,3.5-3.5,3.5s-3.5-1.6-3.5-3.5v-18c0-1.9,1.6-3.5,3.5-3.5Z"/><path class="cls-1" d="M481,142.5c1.9,0,3.5,1.6,3.5,3.5v30.5c0,1.9-1.6,3.5-3.5,3.5s-3.5-1.6-3.5-3.5v-30.5c0-1.9,1.6-3.5,3.5-3.5Z"/><rect y="74" width="278" height="1"/><rect x="318" y="74" width="278" height="1"/><path d="M5,32.2c0,3.4,2.3,6.2,5.4,7.1L44.4,5.4c-.9-3.1-3.7-5.4-7-5.4s-7.2,3.2-7.3,7.1h0c-.1-3.9-3.4-7.1-7.3-7.1s-7.3,3.3-7.3,7.4.5,2.9,1.2,4.1c-1.2-.9-2.7-1.4-4.2-1.4-4.1,0-7.3,3.3-7.3,7.4s3.3,7.4,7.3,7.4c-4.1,0-7.3,3.3-7.3,7.4l-.2-.1Z"/><path d="M55,17.8c0-3.4-2.3-6.3-5.4-7.1L15.6,44.6c.9,3.1,3.7,5.4,7.1,5.4s7.3-3.3,7.3-7.4c0,4.1,3.3,7.4,7.3,7.4s7.3-3.3,7.3-7.4-.5-2.9-1.2-4.1c1.2.9,2.7,1.4,4.2,1.4,4.1,0,7.3-3.3,7.3-7.4s-3.3-7.4-7.3-7.4c4.1,0,7.3-3.3,7.3-7.4l.1.1Z"/></svg>