<?xml version="1.0" encoding="UTF-8"?><svg id="uuid-5b0b97fa-40a1-46cc-83e5-ee5371cecdab" xmlns="http://www.w3.org/2000/svg" width="8.28in" height="2.5in" xmlns:xlink="http://www.w3.org/1999/xlink" viewBox="0 0 596 180"><defs><style>.uuid-9dcbfc03-4ef0-4e1a-ac60-b3b1e57785c5{mask:url(#uuid-d7fc8dd1-4493-476f-9d06-7e6ce03745c1);}.uuid-8da3922b-29d9-4837-b127-f0353e3ca070{fill-rule:evenodd;}.uuid-dc5c0aa2-3670-4770-ad7e-598974013fcb{fill:#fff;}</style><mask id="uuid-d7fc8dd1-4493-476f-9d06-7e6ce03745c1" x="-17.16" y="-22.28" width="94.48" height="94.45" maskUnits="userSpaceOnUse"><g id="uuid-c9e04925-388a-4607-b174-10520dbcdec8"><path class="uuid-dc5c0aa2-3670-4770-ad7e-598974013fcb" d="M30,42.9c9.76,0,17.66-7.95,17.66-17.76S39.76,7.38,30,7.38v35.52Z"/><ellipse class="uuid-dc5c0aa2-3670-4770-ad7e-598974013fcb" cx="37.34" cy="42.62" rx="7.34" ry="7.38"/><ellipse class="uuid-dc5c0aa2-3670-4770-ad7e-598974013fcb" cx="37.34" cy="7.38" rx="7.34" ry="7.38"/><ellipse class="uuid-dc5c0aa2-3670-4770-ad7e-598974013fcb" cx="47.66" cy="32.51" rx="7.34" ry="7.38"/><ellipse class="uuid-dc5c0aa2-3670-4770-ad7e-598974013fcb" cx="47.66" cy="17.76" rx="7.34" ry="7.38"/><path class="uuid-dc5c0aa2-3670-4770-ad7e-598974013fcb" d="M30,7.1c-9.76,0-17.66,7.95-17.66,17.76s7.91,17.76,17.66,17.76l17.43-17.35L30,7.1Z"/><ellipse class="uuid-dc5c0aa2-3670-4770-ad7e-598974013fcb" cx="22.66" cy="7.38" rx="7.34" ry="7.38"/><ellipse class="uuid-dc5c0aa2-3670-4770-ad7e-598974013fcb" cx="22.66" cy="42.62" rx="7.34" ry="7.38"/><ellipse class="uuid-dc5c0aa2-3670-4770-ad7e-598974013fcb" cx="12.34" cy="17.49" rx="7.34" ry="7.38"/><ellipse class="uuid-dc5c0aa2-3670-4770-ad7e-598974013fcb" cx="12.34" cy="32.24" rx="7.34" ry="7.38"/></g></mask></defs><path d="M183.19,116h-1.01v-14.28h7.81v.91h-6.81v6.08h6.43v.9h-6.43v6.39ZM196.01,105.18c.9,0,1.66.21,2.26.63.6.42,1.05,1,1.35,1.74.3.74.45,1.58.45,2.53v.71h-7.67c0,1.46.33,2.58,1,3.36.68.78,1.64,1.17,2.9,1.17.66,0,1.23-.05,1.71-.16.49-.11,1.03-.3,1.62-.56v.91c-.52.23-1.04.4-1.56.51-.52.11-1.12.17-1.8.17-1.07,0-1.97-.22-2.71-.66-.72-.45-1.27-1.08-1.64-1.89-.36-.81-.55-1.76-.55-2.85s.18-2.02.53-2.86c.36-.85.88-1.51,1.56-2,.69-.49,1.54-.74,2.54-.74ZM196,106.03c-1.02,0-1.84.34-2.47,1.02-.62.67-.99,1.64-1.1,2.91h6.61c0-.78-.11-1.46-.33-2.05-.22-.59-.56-1.05-1.01-1.38-.44-.33-1.01-.5-1.7-.5ZM207.21,105.2c.28,0,.54.02.79.05.25.03.48.08.69.14l-.16.91c-.21-.06-.43-.1-.65-.13-.22-.03-.46-.05-.71-.05-.5,0-.95.1-1.35.28-.39.19-.72.46-1,.81-.27.35-.48.78-.62,1.27-.14.49-.22,1.05-.22,1.66v5.86h-1v-10.61h.85l.1,2h.06c.16-.41.39-.78.68-1.1.3-.33.66-.59,1.08-.79.42-.19.9-.29,1.44-.29ZM215.45,105.18c1.19,0,2.11.31,2.74.94.64.62.96,1.61.96,2.94v6.94h-.98v-6.89c0-1.05-.24-1.83-.72-2.32-.48-.5-1.18-.74-2.1-.74-1.17,0-2.06.34-2.68,1.02-.61.68-.92,1.7-.92,3.08v5.85h-.99v-10.61h.8l.15,1.93h.06c.19-.4.45-.75.77-1.07.33-.33.74-.58,1.22-.77.48-.2,1.04-.29,1.68-.29Z"/><path d="M6.63,116h-1.01v-14.28h7.81v.91h-6.81v6.08h6.44v.9h-6.44v6.39ZM19.45,105.18c.9,0,1.66.21,2.26.63.61.42,1.05,1,1.35,1.74.3.74.45,1.58.45,2.53v.71h-7.67c0,1.46.34,2.58,1.01,3.36.68.78,1.64,1.17,2.9,1.17.66,0,1.23-.05,1.71-.16.49-.11,1.03-.3,1.62-.56v.91c-.52.23-1.04.4-1.56.51-.52.11-1.12.17-1.8.17-1.07,0-1.98-.22-2.7-.66-.72-.45-1.27-1.08-1.64-1.89-.36-.81-.55-1.76-.55-2.85s.18-2.02.53-2.86c.36-.85.88-1.51,1.56-2,.69-.49,1.54-.74,2.54-.74ZM19.44,106.03c-1.02,0-1.84.34-2.47,1.02-.62.67-.99,1.64-1.1,2.91h6.61c0-.78-.11-1.46-.33-2.05-.22-.59-.56-1.05-1.01-1.38-.44-.33-1.01-.5-1.7-.5ZM30.65,105.2c.28,0,.54.02.79.05.25.03.48.08.69.14l-.16.91c-.21-.06-.43-.1-.65-.13-.22-.03-.46-.05-.71-.05-.5,0-.95.1-1.35.28-.39.19-.72.46-1,.81-.27.35-.48.78-.62,1.27-.14.49-.21,1.05-.21,1.66v5.86h-1v-10.61h.85l.1,2h.06c.16-.41.39-.78.68-1.1.3-.33.66-.59,1.08-.79.42-.19.9-.29,1.45-.29ZM38.89,105.18c1.19,0,2.11.31,2.74.94.64.62.96,1.61.96,2.94v6.94h-.98v-6.89c0-1.05-.24-1.83-.72-2.32s-1.18-.74-2.1-.74c-1.17,0-2.06.34-2.68,1.02-.61.68-.92,1.7-.92,3.08v5.85h-.99v-10.61h.8l.15,1.93h.06c.19-.4.45-.75.77-1.07.33-.33.74-.58,1.22-.77.48-.2,1.04-.29,1.68-.29ZM60.42,116l-1.94-5.05h-6l-1.98,5.05h-1.03l5.62-14.33h.92l5.47,14.33h-1.05ZM58.15,110.04l-1.97-5.35c-.05-.14-.12-.31-.2-.53-.07-.22-.15-.44-.23-.68-.08-.24-.16-.47-.23-.68-.07.23-.14.46-.21.68-.08.23-.15.45-.22.66-.07.21-.14.4-.21.57l-2.05,5.33h5.33ZM64.25,116h-1v-15.19h1v15.19ZM68.78,116h-1v-15.19h1v15.19ZM73.29,105.39v10.61h-.99v-10.61h.99ZM72.81,101.46c.25,0,.43.07.55.22.12.14.18.34.18.59s-.06.44-.18.59c-.12.14-.3.21-.55.21-.23,0-.41-.07-.53-.21-.12-.14-.18-.34-.18-.59s.06-.44.18-.59c.12-.15.29-.22.53-.22ZM80.86,105.18c.9,0,1.66.21,2.26.63.61.42,1.05,1,1.35,1.74.3.74.45,1.58.45,2.53v.71h-7.67c0,1.46.34,2.58,1.01,3.36.68.78,1.64,1.17,2.9,1.17.66,0,1.23-.05,1.71-.16.49-.11,1.03-.3,1.62-.56v.91c-.52.23-1.04.4-1.56.51-.52.11-1.12.17-1.8.17-1.07,0-1.98-.22-2.71-.66-.72-.45-1.27-1.08-1.64-1.89-.36-.81-.55-1.76-.55-2.85s.18-2.02.53-2.86c.36-.85.88-1.51,1.56-2,.69-.49,1.54-.74,2.54-.74ZM80.85,106.03c-1.02,0-1.84.34-2.47,1.02-.62.67-.99,1.64-1.1,2.91h6.61c0-.78-.11-1.46-.33-2.05-.22-.59-.56-1.05-1.01-1.38-.44-.33-1.01-.5-1.7-.5ZM94.47,113.22c0,.63-.16,1.17-.48,1.62-.31.44-.77.78-1.38,1.02-.61.23-1.35.34-2.24.34-.74,0-1.39-.07-1.97-.19-.58-.13-1.06-.29-1.45-.48v-.98c.49.24,1.03.44,1.62.59.59.15,1.2.22,1.83.22,1.09,0,1.88-.19,2.36-.56.48-.37.72-.88.72-1.52,0-.42-.12-.77-.36-1.04-.23-.28-.57-.52-1.02-.72-.44-.2-.98-.41-1.6-.62-.65-.22-1.23-.44-1.74-.65-.5-.22-.9-.51-1.18-.87-.29-.36-.43-.86-.43-1.48,0-.85.34-1.52,1.03-1.99.68-.48,1.6-.71,2.75-.71.64,0,1.23.06,1.78.18.55.12,1.05.27,1.5.46l-.35.84c-.4-.19-.87-.34-1.4-.46-.53-.12-1.05-.18-1.58-.18-.87,0-1.54.15-2.03.46-.49.31-.73.75-.73,1.35,0,.46.12.81.35,1.07.23.25.57.47,1.01.64.44.17.95.36,1.55.57.62.21,1.19.44,1.71.67.53.23.95.54,1.26.91.31.37.47.88.47,1.51Z"/><path d="M97.36,45h-1.44l-11.81-17.68h-.07c.02.49.03.99.04,1.5.02.5.03,1.02.04,1.56.02.53.03,1.08.03,1.64v12.97h-1.34v-19.99h1.45l11.77,17.62h.07c0-.4-.02-.87-.04-1.39,0-.53-.02-1.07-.04-1.63,0-.56-.01-1.08-.01-1.57v-13.03h1.35v19.99ZM115,37.55c0,1.15-.14,2.2-.42,3.14-.28.94-.7,1.75-1.26,2.43-.56.68-1.25,1.21-2.08,1.59-.82.37-1.78.56-2.87.56s-1.96-.18-2.78-.55c-.81-.37-1.5-.9-2.07-1.59-.56-.68-.98-1.49-1.27-2.43-.29-.95-.44-2-.44-3.16,0-1.6.26-2.97.79-4.12.54-1.16,1.3-2.04,2.3-2.65,1-.62,2.2-.93,3.6-.93s2.64.33,3.6.98c.97.65,1.69,1.55,2.17,2.71.48,1.16.72,2.49.72,4.01ZM103.24,37.55c0,1.3.19,2.44.56,3.42.37.98.94,1.74,1.69,2.28.77.55,1.73.82,2.9.82s2.17-.27,2.94-.82,1.33-1.31,1.69-2.3c.37-.98.55-2.12.55-3.4s-.17-2.36-.52-3.34c-.35-.98-.89-1.74-1.64-2.3-.75-.57-1.72-.85-2.93-.85-1.72,0-3.03.57-3.92,1.72-.88,1.15-1.33,2.73-1.33,4.76ZM125.65,29.85c1.67,0,2.95.44,3.84,1.31.89.88,1.34,2.25,1.34,4.12v9.72h-1.37v-9.64c0-1.48-.34-2.56-1.01-3.25-.67-.69-1.65-1.04-2.94-1.04-1.63,0-2.88.48-3.75,1.44-.86.95-1.29,2.38-1.29,4.31v8.19h-1.38v-14.86h1.12l.21,2.71h.08c.26-.56.62-1.06,1.08-1.5.47-.46,1.03-.82,1.71-1.08.67-.27,1.46-.41,2.35-.41ZM134.3,38.07v-1.27h6.78v1.27h-6.78ZM146.43,45h-1.41v-19.99h10.94v1.27h-9.53v8.52h9.01v1.26h-9.01v8.94ZM160.16,45h-1.39v-21.27h1.39v21.27ZM177.43,37.55c0,1.15-.14,2.2-.42,3.14-.28.94-.7,1.75-1.26,2.43-.56.68-1.25,1.21-2.08,1.59-.82.37-1.78.56-2.87.56s-1.96-.18-2.77-.55c-.81-.37-1.5-.9-2.07-1.59-.56-.68-.98-1.49-1.27-2.43-.29-.95-.44-2-.44-3.16,0-1.6.26-2.97.79-4.12.54-1.16,1.3-2.04,2.3-2.65,1-.62,2.2-.93,3.6-.93s2.64.33,3.59.98c.97.65,1.69,1.55,2.17,2.71.48,1.16.72,2.49.72,4.01ZM165.67,37.55c0,1.3.19,2.44.56,3.42.37.98.94,1.74,1.69,2.28.76.55,1.73.82,2.9.82s2.17-.27,2.94-.82c.76-.55,1.33-1.31,1.7-2.3.37-.98.55-2.12.55-3.4s-.17-2.36-.52-3.34c-.35-.98-.89-1.74-1.64-2.3-.75-.57-1.72-.85-2.93-.85-1.72,0-3.03.57-3.92,1.72-.88,1.15-1.33,2.73-1.33,4.76ZM193.41,45l-3.16-9.98c-.1-.3-.19-.59-.27-.86s-.16-.54-.23-.79-.14-.5-.21-.74c-.06-.25-.13-.49-.19-.72h-.07c-.06.24-.13.48-.19.72-.06.25-.13.5-.21.77-.07.26-.15.53-.23.81-.08.27-.17.56-.27.85l-3.27,9.95h-1.42l-4.23-14.86h1.46l2.61,9.5c.15.56.29,1.05.4,1.49.11.44.21.83.29,1.19.08.36.16.69.22,1.01h.07c.05-.23.11-.46.18-.71.06-.26.13-.53.21-.82.07-.29.16-.6.26-.93.1-.33.21-.68.33-1.07l3.18-9.67h1.37l3.06,9.64c.15.46.28.91.4,1.34.13.42.24.81.33,1.18.1.36.18.71.25,1.03h.08c.04-.3.09-.63.17-.98.08-.36.18-.77.29-1.22.12-.45.25-.94.4-1.48l2.52-9.5h1.39l-4.03,14.86h-1.46ZM207.4,29.85c1.27,0,2.32.3,3.16.89.85.59,1.48,1.4,1.89,2.43.42,1.03.63,2.21.63,3.54v1h-10.73c0,2.04.47,3.61,1.41,4.7.95,1.09,2.3,1.64,4.06,1.64.92,0,1.72-.07,2.39-.22.68-.15,1.44-.41,2.27-.78v1.27c-.73.33-1.46.57-2.19.71-.73.15-1.57.23-2.51.23-1.5,0-2.77-.31-3.79-.93-1.01-.63-1.78-1.51-2.3-2.65-.51-1.14-.77-2.47-.77-3.99s.25-2.82.74-4.01c.5-1.18,1.23-2.12,2.19-2.8.97-.69,2.15-1.04,3.56-1.04ZM207.38,31.04c-1.42,0-2.57.47-3.46,1.42-.88.94-1.39,2.3-1.54,4.07h9.26c0-1.08-.15-2.04-.46-2.87s-.78-1.47-1.41-1.93c-.62-.46-1.41-.7-2.38-.7ZM223.08,29.88c.39,0,.76.02,1.11.07.35.05.67.11.97.19l-.22,1.27c-.3-.08-.61-.14-.92-.18-.31-.05-.64-.07-1-.07-.7,0-1.33.13-1.89.4-.55.26-1.01.64-1.39,1.13-.38.49-.67,1.08-.88,1.78-.2.69-.3,1.47-.3,2.32v8.2h-1.39v-14.86h1.19l.14,2.8h.08c.23-.57.55-1.09.96-1.54.42-.46.93-.83,1.52-1.11.59-.27,1.27-.41,2.02-.41ZM229.45,30.14v14.86h-1.38v-14.86h1.38ZM228.78,24.64c.35,0,.6.1.77.31.16.2.25.47.25.82s-.08.62-.25.82c-.16.2-.42.3-.77.3-.33,0-.57-.1-.74-.3-.16-.2-.25-.47-.25-.82s.08-.62.25-.82c.16-.21.41-.31.74-.31ZM240.96,29.85c1.67,0,2.95.44,3.84,1.31.89.88,1.34,2.25,1.34,4.12v9.72h-1.37v-9.64c0-1.48-.34-2.56-1.01-3.25-.67-.69-1.65-1.04-2.94-1.04-1.63,0-2.88.48-3.75,1.44-.86.95-1.29,2.38-1.29,4.31v8.19h-1.38v-14.86h1.12l.2,2.71h.08c.26-.56.62-1.06,1.08-1.5.47-.46,1.04-.82,1.71-1.08.68-.27,1.46-.41,2.35-.41ZM254.89,51.73c-1.87,0-3.32-.36-4.36-1.08-1.03-.72-1.55-1.73-1.55-3.02,0-1,.32-1.87.94-2.6.63-.72,1.48-1.15,2.56-1.3-.43-.2-.78-.47-1.05-.82-.26-.35-.4-.75-.4-1.2,0-.51.16-.98.48-1.42.32-.45.8-.86,1.43-1.23-.86-.31-1.53-.83-2.02-1.57-.49-.75-.74-1.65-.74-2.69s.21-1.87.64-2.61c.43-.74,1.04-1.31,1.82-1.71.79-.41,1.73-.62,2.8-.62.33,0,.62,0,.89.03.27.02.52.05.75.1.23.04.43.09.61.15h4.8v.98l-3.06.21c.4.48.7,1.01.9,1.57.2.56.3,1.14.3,1.76,0,1.48-.46,2.65-1.39,3.51-.93.87-2.22,1.3-3.88,1.3-.46,0-.9-.04-1.34-.12-.56.33-.98.66-1.27,1-.29.33-.44.74-.44,1.23,0,.31.09.57.27.77.18.19.45.34.79.45.35.1.77.15,1.27.15h2.61c1.61,0,2.85.33,3.71.98.86.66,1.29,1.62,1.29,2.9,0,1.56-.64,2.77-1.93,3.62-1.28.86-3.09,1.29-5.44,1.29ZM254.99,50.56c1.3,0,2.39-.14,3.25-.42.88-.28,1.53-.7,1.97-1.26.44-.55.66-1.23.66-2.04,0-.67-.16-1.18-.48-1.54s-.77-.62-1.35-.75c-.58-.15-1.27-.22-2.06-.22h-2.49c-.79,0-1.5.11-2.12.33-.62.21-1.1.55-1.45,1.01-.34.46-.51,1.08-.51,1.86,0,.99.39,1.75,1.16,2.26.78.52,1.92.78,3.42.78ZM255.42,38.36c1.23,0,2.17-.31,2.83-.93s.98-1.52.98-2.69c0-1.26-.34-2.2-1.01-2.83-.67-.63-1.62-.94-2.83-.94s-2.1.34-2.77,1.01c-.67.67-1,1.6-1,2.82,0,1.13.32,2.01.96,2.64.64.62,1.59.93,2.84.93Z"/><path class="uuid-8da3922b-29d9-4837-b127-f0353e3ca070" d="M220.67,164.29l-16.73,4.39v7.82c0,1.93-1.54,3.5-3.44,3.5s-3.44-1.57-3.44-3.5v-7.82l-16.73-4.39c-1.84-.48-2.88-2.37-2.32-4.22.56-1.84,2.51-2.95,4.34-2.47l14.71,3.86v-5.11l-11.8-3.03c-1.84-.47-2.89-2.36-2.34-4.21.55-1.85,2.49-2.97,4.33-2.49l9.81,2.52v-5.27l-5.1-1.59c-1.82-.57-2.77-2.5-2.12-4.31.65-1.82,2.65-2.83,4.47-2.27l2.75.85v-3.05c0-1.93,1.54-3.5,3.44-3.5s3.44,1.57,3.44,3.5v3.05l2.75-.85c1.82-.56,3.82.45,4.47,2.27.65,1.81-.3,3.74-2.12,4.31l-5.1,1.59v5.27l9.81-2.52c1.84-.48,3.78.64,4.33,2.49.55,1.85-.5,3.74-2.34,4.21l-11.8,3.03v5.11l14.71-3.86c1.83-.48,3.78.63,4.34,2.47.56,1.85-.48,3.74-2.32,4.22Z"/><path d="M61,141.5c0,5.13-3.36,9.48-8,10.95v24.05c0,1.93-1.57,3.5-3.5,3.5s-3.5-1.57-3.5-3.5v-24.05c-4.64-1.47-8-5.82-8-10.95,0-6.35,5.15-11.5,11.5-11.5s11.5,5.15,11.5,11.5Z"/><g class="uuid-9dcbfc03-4ef0-4e1a-ac60-b3b1e57785c5"><polygon points="13.11 47.19 52.48 7.61 77.32 32.59 37.95 72.17 13.11 47.19"/><polygon points="-17.16 17.3 22.21 -22.28 47.05 2.7 7.68 42.28 -17.16 17.3"/></g><path d="M457.78,116l-5.24-13.18h-.05c.01.24.02.49.03.76.01.26.02.53.03.82,0,.29.01.59.01.9v10.7h-.96v-14.28h1.52l5.06,12.72h.06l5.1-12.72h1.48v14.28h-.99v-10.82c0-.25,0-.51.01-.78,0-.27.01-.53.02-.79.01-.27.03-.52.04-.77h-.06l-5.26,13.16h-.8ZM477.42,110.68c0,.82-.1,1.57-.3,2.25-.2.67-.5,1.25-.9,1.74s-.89.87-1.48,1.13c-.59.27-1.27.4-2.05.4s-1.4-.13-1.98-.39c-.58-.27-1.07-.64-1.47-1.13-.4-.49-.7-1.07-.91-1.74-.21-.68-.31-1.43-.31-2.26,0-1.14.19-2.12.57-2.94.38-.83.93-1.46,1.64-1.89.72-.44,1.57-.66,2.57-.66s1.88.23,2.57.7c.69.46,1.21,1.11,1.55,1.93.35.83.52,1.78.52,2.86ZM469.02,110.68c0,.93.13,1.74.4,2.44.27.7.67,1.24,1.21,1.63.55.39,1.24.59,2.07.59s1.55-.19,2.1-.59.95-.94,1.21-1.64c.26-.7.39-1.51.39-2.43s-.12-1.69-.37-2.38c-.25-.7-.64-1.24-1.17-1.64-.53-.4-1.23-.6-2.09-.6-1.23,0-2.16.41-2.8,1.23-.63.82-.95,1.95-.95,3.4ZM485.03,105.18c1.19,0,2.11.31,2.74.94.64.62.96,1.61.96,2.94v6.94h-.98v-6.89c0-1.05-.24-1.83-.72-2.32-.48-.5-1.18-.74-2.1-.74-1.17,0-2.06.34-2.68,1.02-.61.68-.92,1.7-.92,3.08v5.85h-.99v-10.61h.8l.15,1.93h.06c.19-.4.45-.75.77-1.07.33-.33.74-.58,1.22-.77.48-.2,1.04-.29,1.68-.29ZM500.98,110.68c0,.82-.1,1.57-.3,2.25-.2.67-.5,1.25-.9,1.74-.4.49-.89.87-1.48,1.13-.59.27-1.27.4-2.05.4s-1.4-.13-1.98-.39c-.58-.27-1.07-.64-1.48-1.13-.4-.49-.7-1.07-.91-1.74-.21-.68-.31-1.43-.31-2.26,0-1.14.19-2.12.57-2.94.38-.83.93-1.46,1.64-1.89.72-.44,1.57-.66,2.57-.66s1.89.23,2.57.7c.69.46,1.21,1.11,1.55,1.93.35.83.52,1.78.52,2.86ZM492.58,110.68c0,.93.13,1.74.4,2.44.27.7.67,1.24,1.21,1.63.55.39,1.24.59,2.07.59s1.55-.19,2.1-.59c.55-.39.95-.94,1.21-1.64.26-.7.39-1.51.39-2.43s-.12-1.69-.37-2.38c-.25-.7-.64-1.24-1.17-1.64-.53-.4-1.23-.6-2.09-.6-1.23,0-2.16.41-2.8,1.23-.63.82-.95,1.95-.95,3.4ZM508.16,116.19c-1.05,0-1.95-.22-2.68-.65-.72-.44-1.27-1.07-1.64-1.89-.37-.82-.55-1.79-.55-2.91s.21-2.16.63-2.99c.42-.83,1.02-1.47,1.79-1.91.77-.44,1.67-.66,2.7-.66.51,0,.98.04,1.42.14.44.09.83.22,1.18.38l-.26.87c-.37-.16-.75-.29-1.16-.37-.41-.08-.8-.13-1.18-.13-.87,0-1.61.19-2.23.58-.6.38-1.07.92-1.4,1.62-.32.7-.48,1.52-.48,2.47,0,.89.14,1.68.41,2.37.27.68.69,1.22,1.26,1.62.57.39,1.29.59,2.18.59.51,0,1-.05,1.47-.16.47-.1.89-.24,1.28-.4v.9c-.35.16-.74.28-1.2.38-.45.1-.96.16-1.54.16ZM522.22,110.68c0,.82-.1,1.57-.3,2.25-.2.67-.5,1.25-.9,1.74-.4.49-.89.87-1.48,1.13-.59.27-1.27.4-2.05.4s-1.4-.13-1.98-.39c-.58-.27-1.07-.64-1.47-1.13-.4-.49-.7-1.07-.91-1.74-.21-.68-.31-1.43-.31-2.26,0-1.14.19-2.12.57-2.94.38-.83.93-1.46,1.64-1.89.72-.44,1.57-.66,2.57-.66s1.89.23,2.57.7c.69.46,1.21,1.11,1.55,1.93.35.83.52,1.78.52,2.86ZM513.83,110.68c0,.93.13,1.74.4,2.44.27.7.67,1.24,1.21,1.63.55.39,1.24.59,2.07.59s1.55-.19,2.1-.59c.55-.39.95-.94,1.21-1.64.26-.7.39-1.51.39-2.43s-.12-1.69-.37-2.38c-.25-.7-.64-1.24-1.17-1.64-.53-.4-1.23-.6-2.09-.6-1.23,0-2.16.41-2.8,1.23-.63.82-.95,1.95-.95,3.4ZM528.03,115.35c.31,0,.59-.02.85-.07.27-.04.5-.1.7-.18v.82c-.21.07-.45.13-.73.19-.28.06-.59.09-.93.09-.6,0-1.1-.11-1.49-.33-.4-.23-.7-.57-.9-1.03-.2-.46-.3-1.05-.3-1.76v-6.88h-1.58v-.59l1.57-.3.34-2.5h.65v2.57h3.31v.82h-3.31v6.82c0,.76.14,1.34.42,1.74.29.39.75.59,1.4.59ZM538.49,113.22c0,.63-.16,1.17-.48,1.62-.31.44-.77.78-1.38,1.02-.61.23-1.35.34-2.24.34-.73,0-1.39-.07-1.97-.19-.58-.13-1.07-.29-1.46-.48v-.98c.49.24,1.03.44,1.62.59.59.15,1.2.22,1.83.22,1.09,0,1.88-.19,2.36-.56.48-.37.72-.88.72-1.52,0-.42-.12-.77-.36-1.04-.23-.28-.57-.52-1.02-.72-.44-.2-.98-.41-1.6-.62-.65-.22-1.23-.44-1.74-.65-.5-.22-.9-.51-1.18-.87-.29-.36-.43-.86-.43-1.48,0-.85.34-1.52,1.03-1.99.68-.48,1.6-.71,2.75-.71.64,0,1.23.06,1.78.18.55.12,1.05.27,1.5.46l-.35.84c-.4-.19-.87-.34-1.4-.46-.53-.12-1.05-.18-1.58-.18-.87,0-1.54.15-2.03.46-.49.31-.73.75-.73,1.35,0,.46.12.81.35,1.07.23.25.57.47,1.01.64.44.17.95.36,1.55.57.62.21,1.19.44,1.71.67.53.23.95.54,1.26.91.31.37.47.88.47,1.51Z"/><path d="M334.41,108.72c0,1.6-.28,2.93-.85,4.01-.56,1.08-1.39,1.9-2.5,2.44-1.1.55-2.46.82-4.09.82h-3.42v-14.28h3.87c1.52,0,2.8.27,3.84.8,1.04.53,1.82,1.32,2.35,2.36.53,1.03.8,2.31.8,3.84ZM333.36,108.76c0-1.36-.22-2.5-.66-3.41-.44-.91-1.12-1.6-2.03-2.05-.91-.46-2.07-.69-3.47-.69h-2.64v12.5h2.36c2.15,0,3.77-.53,4.83-1.58,1.07-1.06,1.6-2.65,1.6-4.76ZM338.41,105.39v10.61h-.99v-10.61h.99ZM337.93,101.46c.25,0,.43.07.55.22.12.14.17.34.17.59s-.06.44-.17.59c-.12.14-.3.21-.55.21s-.41-.07-.53-.21c-.12-.14-.17-.34-.17-.59s.06-.44.17-.59c.12-.15.29-.22.53-.22ZM346.21,116.19c-1.06,0-1.95-.22-2.68-.65-.72-.44-1.27-1.07-1.64-1.89-.36-.82-.55-1.79-.55-2.91s.21-2.16.63-2.99c.42-.83,1.02-1.47,1.79-1.91.77-.44,1.67-.66,2.7-.66.51,0,.98.04,1.42.14.44.09.83.22,1.18.38l-.26.87c-.37-.16-.75-.29-1.16-.37-.41-.08-.8-.13-1.18-.13-.87,0-1.62.19-2.23.58-.6.38-1.07.92-1.4,1.62-.32.7-.48,1.52-.48,2.47,0,.89.14,1.68.41,2.37.27.68.69,1.22,1.26,1.62.57.39,1.29.59,2.18.59.51,0,1-.05,1.46-.16.47-.1.89-.24,1.28-.4v.9c-.35.16-.74.28-1.2.38-.45.1-.96.16-1.54.16ZM360.27,110.68c0,.82-.1,1.57-.3,2.25-.2.67-.5,1.25-.9,1.74s-.89.87-1.48,1.13c-.59.27-1.27.4-2.05.4s-1.4-.13-1.98-.39c-.58-.27-1.07-.64-1.48-1.13-.4-.49-.7-1.07-.91-1.74-.21-.68-.31-1.43-.31-2.26,0-1.14.19-2.12.57-2.94.38-.83.93-1.46,1.64-1.89.72-.44,1.57-.66,2.57-.66s1.89.23,2.57.7c.69.46,1.21,1.11,1.55,1.93.35.83.52,1.78.52,2.86ZM351.87,110.68c0,.93.13,1.74.4,2.44.27.7.67,1.24,1.21,1.63.55.39,1.24.59,2.07.59s1.55-.19,2.1-.59.95-.94,1.21-1.64c.26-.7.39-1.51.39-2.43s-.12-1.69-.37-2.38c-.25-.7-.64-1.24-1.17-1.64-.53-.4-1.23-.6-2.09-.6-1.23,0-2.16.41-2.8,1.23-.63.82-.95,1.95-.95,3.4ZM366.07,115.35c.31,0,.59-.02.85-.07.27-.04.5-.1.7-.18v.82c-.21.07-.45.13-.73.19-.28.06-.59.09-.93.09-.6,0-1.1-.11-1.49-.33-.4-.23-.7-.57-.9-1.03-.2-.46-.3-1.05-.3-1.76v-6.88h-1.58v-.59l1.57-.3.34-2.5h.65v2.57h3.31v.82h-3.31v6.82c0,.76.14,1.34.42,1.74.29.39.75.59,1.4.59ZM376.54,113.22c0,.63-.16,1.17-.48,1.62-.31.44-.77.78-1.38,1.02-.61.23-1.35.34-2.24.34-.74,0-1.39-.07-1.97-.19-.58-.13-1.07-.29-1.46-.48v-.98c.49.24,1.03.44,1.62.59.59.15,1.2.22,1.83.22,1.09,0,1.88-.19,2.36-.56.48-.37.72-.88.72-1.52,0-.42-.12-.77-.36-1.04-.23-.28-.57-.52-1.01-.72-.44-.2-.98-.41-1.6-.62-.65-.22-1.23-.44-1.74-.65-.5-.22-.9-.51-1.18-.87-.29-.36-.43-.86-.43-1.48,0-.85.34-1.52,1.03-1.99.68-.48,1.6-.71,2.75-.71.64,0,1.23.06,1.78.18.55.12,1.06.27,1.5.46l-.35.84c-.4-.19-.87-.34-1.4-.46-.53-.12-1.05-.18-1.58-.18-.87,0-1.54.15-2.03.46s-.73.75-.73,1.35c0,.46.12.81.35,1.07.23.25.57.47,1.01.64.44.17.95.36,1.55.57.62.21,1.19.44,1.71.67.53.23.95.54,1.26.91.31.37.47.88.47,1.51Z"/><path d="M402.23,45h-1.41v-19.99h10.94v1.27h-9.53v8.52h9.01v1.26h-9.01v8.94ZM415.95,45h-1.39v-21.27h1.39v21.27ZM433.22,37.55c0,1.15-.14,2.2-.42,3.14-.28.94-.7,1.75-1.26,2.43-.56.68-1.25,1.21-2.08,1.59-.82.37-1.78.56-2.87.56s-1.96-.18-2.78-.55c-.81-.37-1.5-.9-2.06-1.59-.56-.68-.98-1.49-1.27-2.43-.29-.95-.44-2-.44-3.16,0-1.6.26-2.97.79-4.12.54-1.16,1.3-2.04,2.3-2.65,1-.62,2.2-.93,3.6-.93s2.64.33,3.6.98c.97.65,1.69,1.55,2.17,2.71.48,1.16.73,2.49.73,4.01ZM421.46,37.55c0,1.3.19,2.44.56,3.42.37.98.94,1.74,1.7,2.28.76.55,1.73.82,2.9.82s2.17-.27,2.94-.82c.77-.55,1.33-1.31,1.7-2.3.36-.98.55-2.12.55-3.4s-.17-2.36-.52-3.34c-.35-.98-.89-1.74-1.64-2.3-.75-.57-1.72-.85-2.93-.85-1.72,0-3.03.57-3.92,1.72-.88,1.15-1.33,2.73-1.33,4.76ZM449.2,45l-3.16-9.98c-.1-.3-.19-.59-.27-.86s-.16-.54-.23-.79-.14-.5-.2-.74c-.06-.25-.13-.49-.19-.72h-.07c-.06.24-.13.48-.19.72-.06.25-.13.5-.21.77-.07.26-.15.53-.23.81-.08.27-.17.56-.27.85l-3.27,9.95h-1.42l-4.22-14.86h1.46l2.61,9.5c.15.56.29,1.05.4,1.49.11.44.21.83.29,1.19s.15.69.22,1.01h.07c.05-.23.11-.46.18-.71.06-.26.13-.53.2-.82.07-.29.16-.6.26-.93.1-.33.21-.68.33-1.07l3.19-9.67h1.37l3.06,9.64c.15.46.28.91.4,1.34.13.42.24.81.33,1.18.1.36.18.71.25,1.03h.08c.04-.3.09-.63.17-.98.08-.36.18-.77.29-1.22.12-.45.25-.94.4-1.48l2.52-9.5h1.39l-4.03,14.86h-1.46ZM463.19,29.85c1.27,0,2.32.3,3.16.89.85.59,1.48,1.4,1.89,2.43.42,1.03.63,2.21.63,3.54v1h-10.73c0,2.04.47,3.61,1.41,4.7.95,1.09,2.3,1.64,4.06,1.64.92,0,1.72-.07,2.39-.22.68-.15,1.44-.41,2.27-.78v1.27c-.73.33-1.46.57-2.19.71-.73.15-1.57.23-2.51.23-1.5,0-2.77-.31-3.79-.93-1.01-.63-1.78-1.51-2.3-2.65-.51-1.14-.77-2.47-.77-3.99s.25-2.82.74-4.01c.5-1.18,1.23-2.12,2.19-2.8.97-.69,2.15-1.04,3.55-1.04ZM463.17,31.04c-1.42,0-2.58.47-3.46,1.42-.88.94-1.39,2.3-1.54,4.07h9.26c0-1.08-.15-2.04-.46-2.87s-.78-1.47-1.41-1.93c-.62-.46-1.41-.7-2.38-.7ZM478.87,29.88c.39,0,.76.02,1.11.07.35.05.67.11.97.19l-.22,1.27c-.3-.08-.61-.14-.92-.18-.31-.05-.64-.07-1-.07-.7,0-1.33.13-1.89.4-.55.26-1.01.64-1.4,1.13-.38.49-.67,1.08-.88,1.78-.2.69-.3,1.47-.3,2.32v8.2h-1.39v-14.86h1.19l.14,2.8h.08c.23-.57.55-1.09.96-1.54.42-.46.92-.83,1.52-1.11.59-.27,1.27-.41,2.02-.41ZM485.24,30.14v14.86h-1.38v-14.86h1.38ZM484.57,24.64c.35,0,.6.1.77.31.16.2.25.47.25.82s-.08.62-.25.82c-.16.2-.42.3-.77.3-.33,0-.57-.1-.74-.3-.16-.2-.25-.47-.25-.82s.08-.62.25-.82c.16-.21.41-.31.74-.31ZM496.75,29.85c1.67,0,2.95.44,3.84,1.31s1.34,2.25,1.34,4.12v9.72h-1.37v-9.64c0-1.48-.34-2.56-1.01-3.25-.67-.69-1.65-1.04-2.94-1.04-1.63,0-2.88.48-3.75,1.44-.86.95-1.28,2.38-1.28,4.31v8.19h-1.38v-14.86h1.12l.2,2.71h.08c.27-.56.62-1.06,1.08-1.5.46-.46,1.04-.82,1.71-1.08.68-.27,1.46-.41,2.35-.41ZM510.68,51.73c-1.87,0-3.32-.36-4.36-1.08-1.03-.72-1.54-1.73-1.54-3.02,0-1,.32-1.87.94-2.6.63-.72,1.48-1.15,2.56-1.3-.43-.2-.78-.47-1.05-.82-.27-.35-.4-.75-.4-1.2,0-.51.16-.98.48-1.42.32-.45.8-.86,1.43-1.23-.86-.31-1.53-.83-2.02-1.57-.49-.75-.74-1.65-.74-2.69s.21-1.87.64-2.61c.43-.74,1.04-1.31,1.82-1.71.79-.41,1.73-.62,2.8-.62.33,0,.62,0,.89.03.27.02.52.05.75.1.23.04.43.09.61.15h4.8v.98l-3.06.21c.4.48.7,1.01.9,1.57.2.56.3,1.14.3,1.76,0,1.48-.46,2.65-1.39,3.51-.93.87-2.22,1.3-3.88,1.3-.46,0-.9-.04-1.34-.12-.56.33-.98.66-1.27,1-.29.33-.44.74-.44,1.23,0,.31.09.57.27.77.18.19.45.34.79.45.35.1.77.15,1.27.15h2.61c1.61,0,2.85.33,3.71.98.86.66,1.28,1.62,1.28,2.9,0,1.56-.64,2.77-1.93,3.62-1.28.86-3.09,1.29-5.44,1.29ZM510.78,50.56c1.3,0,2.39-.14,3.25-.42.88-.28,1.53-.7,1.97-1.26.44-.55.66-1.23.66-2.04,0-.67-.16-1.18-.48-1.54-.32-.36-.77-.62-1.35-.75-.58-.15-1.27-.22-2.06-.22h-2.49c-.79,0-1.5.11-2.12.33-.62.21-1.1.55-1.45,1.01-.34.46-.51,1.08-.51,1.86,0,.99.39,1.75,1.16,2.26.78.52,1.92.78,3.42.78ZM511.22,38.36c1.23,0,2.17-.31,2.83-.93s.98-1.52.98-2.69c0-1.26-.34-2.2-1.01-2.83-.68-.63-1.62-.94-2.83-.94s-2.1.34-2.77,1.01c-.67.67-1,1.6-1,2.82,0,1.13.32,2.01.96,2.64.64.62,1.59.93,2.84.93Z"/><path class="uuid-8da3922b-29d9-4837-b127-f0353e3ca070" d="M373.27,157.85c-.08.17-.21.39-.37.67-.32.56-.81,1.33-1.45,2.18-1.27,1.69-3.25,3.84-5.99,5.42-2.75,1.57-5.61,2.2-7.72,2.45-1.07.13-1.97.16-2.62.16-.33,0-.59,0-.78-.01-.09,0-.17,0-.22,0-.03-.01-.05-.01-.07-.01h-.04c-.3-.02-.59-.11-.84-.23v8.03c0,1.93-1.58,3.5-3.52,3.5s-3.52-1.57-3.52-3.5v-17.82s-.09.02-.14.02h-.04s-.04,0-.07.01c-.05,0-.13,0-.22,0-.19.01-.45.01-.78.01-.65,0-1.55-.03-2.62-.16-2.11-.25-4.97-.88-7.72-2.45-2.74-1.58-4.72-3.73-5.99-5.42-.64-.85-1.13-1.62-1.45-2.18-.16-.28-.29-.5-.37-.67-.05-.08-.08-.15-.11-.2-.01-.03-.02-.05-.03-.06v-.02s-.01-.01-.01-.01h0c-.32-.67-.3-1.42.05-2.03.35-.6,1-.99,1.74-1.06h.1c.06,0,.13,0,.23-.02.19,0,.45-.01.77-.01.65,0,1.56.03,2.62.16,2.11.25,4.98.88,7.72,2.45,2.74,1.58,4.72,3.73,5.99,5.42.11.15.22.3.33.44v-19.41c0-1.93,1.57-3.5,3.52-3.5s3.52,1.57,3.52,3.5v30.45c.28-.44.62-.94,1.03-1.48,1.27-1.69,3.25-3.84,5.99-5.42,2.74-1.57,5.61-2.2,7.72-2.45,1.06-.13,1.97-.16,2.62-.16.32,0,.58.01.77.01.1.01.17.01.23.02h.1c.74.07,1.39.46,1.74,1.06.35.61.37,1.35.05,2.01"/><path d="M348,42.9c9.76,0,17.66-7.95,17.66-17.76s-7.91-17.76-17.66-17.76v35.52Z"/><path d="M373,32.51c0,4.08-3.28,7.38-7.34,7.38-1.57,0-3.03-.5-4.22-1.35.78,1.16,1.23,2.57,1.23,4.08,0,4.08-3.28,7.38-7.33,7.38s-7.34-3.3-7.34-7.38c0,4.08-3.28,7.38-7.34,7.38s-7.33-3.3-7.33-7.38c0-1.78.63-3.42,1.68-4.69-1.26,1.05-2.9,1.69-4.67,1.69-4.06,0-7.34-3.31-7.34-7.38s3.28-7.38,7.34-7.38c-4.06,0-7.34-3.3-7.34-7.37s3.28-7.38,7.34-7.38c1.57,0,3.03.5,4.22,1.35-.78-1.16-1.23-2.57-1.23-4.08,0-4.08,3.28-7.38,7.33-7.38s7.19,3.15,7.33,7.1h.02c.14-3.94,3.36-7.1,7.33-7.1s7.33,3.3,7.33,7.38c0,1.78-.63,3.42-1.68,4.69,1.26-1.05,2.9-1.69,4.67-1.69,4.06,0,7.34,3.31,7.34,7.38s-3.28,7.38-7.34,7.38c4.06,0,7.34,3.3,7.34,7.37Z"/><path class="uuid-8da3922b-29d9-4837-b127-f0353e3ca070" d="M495,130c1.93,0,3.5,1.57,3.5,3.5v43c0,1.93-1.57,3.5-3.5,3.5s-3.5-1.57-3.5-3.5v-43c0-1.93,1.57-3.5,3.5-3.5Z"/><path class="uuid-8da3922b-29d9-4837-b127-f0353e3ca070" d="M509,155c1.93,0,3.5,1.57,3.5,3.5v18c0,1.93-1.57,3.5-3.5,3.5s-3.5-1.57-3.5-3.5v-18c0-1.93,1.57-3.5,3.5-3.5Z"/><path class="uuid-8da3922b-29d9-4837-b127-f0353e3ca070" d="M481,142.5c1.93,0,3.5,1.57,3.5,3.5v30.5c0,1.93-1.57,3.5-3.5,3.5s-3.5-1.57-3.5-3.5v-30.5c0-1.93,1.57-3.5,3.5-3.5Z"/><rect y="74" width="278" height="1"/><rect x="318" y="74" width="278" height="1"/></svg>