<?xml version="1.0" encoding="UTF-8"?><svg id="Layer_1" xmlns="http://www.w3.org/2000/svg" width="17.64mm" height="17.64mm" viewBox="0 0 50 50"><defs><style>.cls-1{fill-rule:evenodd;}</style></defs><path class="cls-1" d="M48.32,25.45c-.41-.81-1.87-.97-3-1-2.98-.09-5.36.64-6.23.92-.96.31-2.38.77-4.08,1.78-2.7,1.6-4.7,3.7-6,5.4-.4.5-.8,1-1,1.5V3.55c0-1.9-1.6-3.5-3.5-3.5s-3.5,1.6-3.5,3.5v19.4c-.1-.1-.2-.3-.3-.4-1.3-1.7-3.2-3.8-6-5.4-2.7-1.6-5.6-2.2-7.7-2.5-1.1-.1-2-.2-2.6-.2h-1c-.7,0-1.4.5-1.7,1.1-.3.6-.4,1.4,0,2,.43.81,1.08,1.91,2,3.1.9,1.17,2.74,3.54,6,5.4,2.8,1.6,5.6,2.2,7.7,2.5,1.1.1,2,.2,2.6.2h1.1v17.8c0,1.9,1.6,3.5,3.5,3.5s3.5-1.6,3.5-3.5v-8c.2.1.5.2.8.2h1c.7,0,1.5,0,2.6-.2,2.1-.2,5-.9,7.7-2.5s4.7-3.7,6-5.4c.76-.99,1.5-2.2,1.5-2.2.26-.42.47-.77.6-1,.09-.19.23-.56.22-1.04,0,0,0-.53-.22-.96Z"/></svg>