<?xml version="1.0" encoding="UTF-8"?><svg id="Layer_1" xmlns="http://www.w3.org/2000/svg" width="17.64mm" height="17.64mm" viewBox="0 0 50 50"><path d="M0,32.2c-.03,2.27,1.08,3.89,1.54,4.49,1.41,1.83,3.25,2.44,3.86,2.61L39.4,5.4C38.5,2.3,35.7,0,32.4,0s-7.2,3.2-7.3,7.1C25,3.2,21.7,0,17.8,0,14.93,0,12.43,2.43,12.3,2.58c-1.72,1.99-1.8,4.26-1.8,4.82-.01,2.04.83,3.52,1.2,4.1-.55-.4-2.07-1.38-4.2-1.4-.48,0-1.75.05-3.11.69C1.89,11.96.2,14.52.2,17.5c0,4.1,3.3,7.4,7.3,7.4.07,0,.1,0,.1,0,0,.05-1.98.23-3.21.68-2.27.84-4.35,3.57-4.39,6.61Z"/><path d="M50,17.8c0-3.4-2.3-6.3-5.4-7.1L10.6,44.6c.9,3.1,3.7,5.4,7.1,5.4s7.3-3.3,7.3-7.4c0,4.1,3.3,7.4,7.3,7.4,2.71,0,5.1-2.11,5.33-2.35,1.88-2.02,1.97-4.42,1.97-5.05,0-2.03-.82-3.5-1.2-4.1.55.4,2.07,1.38,4.2,1.4.48,0,1.75-.05,3.11-.69,2.5-1.17,4.19-3.73,4.19-6.71,0-4.1-3.3-7.4-7.3-7.4,4.1,0,7.3-3.3,7.3-7.4l.1.1Z"/></svg>