<?xml version="1.0" encoding="UTF-8"?><svg id="Layer_1" xmlns="http://www.w3.org/2000/svg" width="17.64mm" height="17.64mm" viewBox="0 0 50 50"><defs><style>.cls-1{fill-rule:evenodd;}</style></defs><path class="cls-1" d="M25,0c1.9,0,3.5,1.6,3.5,3.5v43c0,1.9-1.6,3.5-3.5,3.5s-3.5-1.6-3.5-3.5V3.5c0-1.9,1.6-3.5,3.5-3.5Z"/><path class="cls-1" d="M39,25c1.9,0,3.5,1.6,3.5,3.5v18c0,1.9-1.6,3.5-3.5,3.5s-3.5-1.6-3.5-3.5v-18c0-1.9,1.6-3.5,3.5-3.5Z"/><path class="cls-1" d="M11,12.5c1.9,0,3.5,1.6,3.5,3.5v30.5c0,1.9-1.6,3.5-3.5,3.5s-3.5-1.6-3.5-3.5v-30.5c0-1.9,1.6-3.5,3.5-3.5Z"/></svg>