<?xml version="1.0" encoding="UTF-8"?><svg id="Layer_1" xmlns="http://www.w3.org/2000/svg" width="17.64mm" height="17.64mm" viewBox="0 0 50 50"><path d="M42.57,25.15c4.1,0,7.3-3.3,7.3-7.4,0-2.86-1.69-4.75-1.98-5.06-.32-.34-2.24-2.33-5.32-2.34-2.52,0-4.23,1.31-4.7,1.7,1-1.3,1.7-2.9,1.7-4.7C39.57,3.25,36.27-.05,32.27-.05s-7.2,3.2-7.3,7.1C24.87,3.15,21.57-.05,17.67-.05c-2.55,0-4.77,1.81-5.16,2.21-.09.09-2.06,2.15-2.14,5.19-.02.65-.05,2.24.93,3.72.11.16.21.29.27.38-.55-.4-2.07-1.38-4.2-1.4-.48,0-1.75.05-3.11.69C1.76,11.91.07,14.47.07,17.45c0,4.1,3.3,7.4,7.3,7.4C3.27,24.85.07,28.15.07,32.25c0,3.04,1.9,4.99,2.19,5.27.38.38,2.23,2.12,5.11,2.13,2.53,0,4.24-1.32,4.7-1.7-1,1.3-1.7,2.9-1.7,4.7,0,4.1,3.3,7.4,7.3,7.4s7.3-3.3,7.3-7.4c0,4.1,3.3,7.4,7.3,7.4,2.43,0,4.56-1.61,4.92-1.94,2.31-2.14,2.38-4.95,2.38-5.46,0-2.01-.81-3.49-1.2-4.1.55.4,2.07,1.38,4.2,1.4.48,0,1.75-.05,3.11-.69,2.5-1.17,4.19-3.73,4.19-6.71,0-4.1-3.3-7.4-7.3-7.4Z"/></svg>