<?xml version="1.0" encoding="UTF-8"?><svg id="Layer_1" xmlns="http://www.w3.org/2000/svg" width=".69in" height=".69in" viewBox="0 0 50 50"><defs><style>.cls-1{fill:#f3efd0;}</style></defs><path class="cls-1" d="M48.72,43.23l-10.58-10.58c2.26-3.32,3.58-7.31,3.58-11.62,0-11.46-9.32-20.78-20.77-20.78S.17,9.58.17,21.03s9.32,20.77,20.78,20.77c4.39,0,8.48-1.37,11.83-3.71l10.53,10.53c1.49,1.49,3.9,1.49,5.41,0,1.49-1.49,1.49-3.9,0-5.4ZM20.95,34.16c-7.24,0-13.14-5.89-13.14-13.13s5.89-13.14,13.14-13.14,13.13,5.89,13.13,13.14-5.89,13.13-13.13,13.13Z"/></svg>